<svg width="63" height="61" viewBox="0 0 63 61" fill="none" xmlns="http://www.w3.org/2000/svg">
<path d="M57.6923 46.0771C57.6923 54.0579 51.25 60.5002 43.2692 60.5002C35.2885 60.5002 28.8461 54.0579 28.8461 46.0771C28.8461 38.0963 22.4038 31.654 14.4231 31.654C6.44231 31.654 0 25.2117 0 17.2309C0 9.25017 6.44231 2.80786 14.4231 2.80786C22.4038 2.80786 28.8461 9.25017 28.8461 17.2309C28.8461 25.2117 35.2885 31.654 43.2692 31.654C51.25 31.654 57.6923 38.0963 57.6923 46.0771Z" fill="#E3B27D"/>
<path d="M62.3077 43.7692C62.3077 51.75 55.8654 58.1923 47.8847 58.1923C39.9039 58.1923 33.4616 51.75 33.4616 43.7692C33.4616 35.7885 27.0193 29.3461 19.0385 29.3461C11.0578 29.3461 4.61545 22.9038 4.61545 14.9231C4.61545 6.94231 11.0578 0.5 19.0385 0.5C27.0193 0.5 33.4616 6.94231 33.4616 14.9231C33.4616 22.9038 39.9039 29.3461 47.8847 29.3461C55.8654 29.3461 62.3077 35.7885 62.3077 43.7692Z" stroke="white" stroke-miterlimit="10"/>
</svg>
