<svg width="75" height="76" viewBox="0 0 75 76" fill="none" xmlns="http://www.w3.org/2000/svg">
<path d="M36.215 36.2143C55.9372 36.2143 71.9293 20.2222 71.9293 0.5H36.215" stroke="white"/>
<path d="M36.215 71.9285H71.9293C71.9293 52.246 55.9372 36.2142 36.215 36.2142" stroke="white"/>
<path d="M36.2143 71.9285H0.5C0.5 52.246 16.4921 36.2142 36.2143 36.2142" stroke="white"/>
<path d="M36.2143 0.5H0.5C0.5 20.2222 16.4921 36.2143 36.2143 36.2143" stroke="white"/>
<path d="M38.8928 39.7858V4.07153H74.6071C74.6071 23.7938 58.615 39.7858 38.8928 39.7858Z" fill="#E3B27D"/>
<path d="M74.6071 75.5001H38.8928V39.7858C58.615 39.7858 74.6071 55.8175 74.6071 75.5001Z" fill="#E3B27D"/>
<path d="M3.17935 75.5001H38.8936V39.7858C19.1714 39.7858 3.17935 55.8175 3.17935 75.5001Z" fill="#E3B27D"/>
<path d="M3.17903 4.07153H38.8933V39.7858C19.1711 39.7858 3.17903 23.7938 3.17903 4.07153Z" fill="#E3B27D"/>
</svg>
